<?xml version="1.0" ?><svg viewBox="0 0 64 64" xmlns="http://www.w3.org/2000/svg"><defs><style>.cls-1,.cls-2{fill:none;stroke:#000;stroke-linejoin:round;stroke-width:2px;}.cls-1{stroke-linecap:round;}</style></defs><g id="protection"><path class="cls-1" d="M33,8h0A18,18,0,0,1,51,26V59a0,0,0,0,1,0,0H15a0,0,0,0,1,0,0V26A18,18,0,0,1,33,8Z"/><circle cx="8.9309" cy="43.3994" r="1.0691"/><line class="cls-1" x1="57.5509" x2="60.5509" y1="39.0547" y2="42.0547"/><line class="cls-1" x1="60.5509" x2="57.5509" y1="39.0547" y2="42.0547"/><line class="cls-1" x1="33" x2="33" y1="46" y2="59"/><line class="cls-1" x1="5.305" x2="62.305" y1="58.9922" y2="58.9922"/><path class="cls-1" d="M33,17h0a4,4,0,0,1,4,4v7a0,0,0,0,1,0,0H33.5184A4.5184,4.5184,0,0,1,29,23.4816V21a4,4,0,0,1,4-4Z"/><path class="cls-1" d="M37.0168,58.7137,38,42V32h8V21a2,2,0,0,0-4,0l.0153,7H23.9847L24,21a2,2,0,0,0-4,0V32h8V42l.9835,16.7193"/><polyline class="cls-1" points="17 5.556 17 10 12 10"/><polyline class="cls-1" points="13 8 11 10 13 12"/><polyline class="cls-1" points="55 15.556 55 20 60 20"/><polyline class="cls-1" points="59 18 61 20 59 22"/><polyline class="cls-1" points="55 6.868 51.434 10.434 48.268 7.268"/><polyline class="cls-1" points="47 9 47 6.005 49.915 6.005"/><polyline class="cls-1" points="11 23.868 7.434 27.434 4.268 24.268"/><polyline class="cls-1" points="3 26 3 23.005 5.915 23.005"/><line class="cls-1" x1="18" x2="18" y1="41" y2="48"/><line class="cls-2" x1="24" x2="20" y1="23" y2="23"/><line class="cls-2" x1="42" x2="46" y1="23" y2="23"/><line class="cls-2" x1="38" x2="28" y1="42" y2="42"/></g></svg>
</svg>